<?xml version="1.0" standalone="no"?>
<!DOCTYPE svg PUBLIC "-//W3C//DTD SVG 20010904//EN"
 "http://www.w3.org/TR/2001/REC-SVG-20010904/DTD/svg10.dtd">
<svg version="1.0" xmlns="http://www.w3.org/2000/svg"
 width="432.000000pt" height="432.000000pt" viewBox="0 0 432.000000 432.000000"
 preserveAspectRatio="xMidYMid meet">
<metadata>
Created by potrace 1.11, written by Peter Selinger 2001-2013
</metadata>
<g transform="translate(0.000000,432.000000) scale(0.100000,-0.100000)"
fill="#000000" stroke="none">
<path d="M0 2160 l0 -2160 2160 0 2160 0 0 2160 0 2160 -2160 0 -2160 0 0
-2160z m1200 90 l0 -350 -302 0 -303 0 -91 -91 c-115 -114 -124 -114 -124 6
l0 85 -65 0 -65 0 0 350 0 350 475 0 475 0 0 -350z m530 90 c0 -162 -2 -190
-15 -190 -13 0 -15 27 -15 183 0 101 3 187 7 190 19 20 23 -9 23 -183z m2180
0 c0 -162 -2 -190 -15 -190 -13 0 -15 27 -15 183 0 101 3 187 7 190 19 20 23
-9 23 -183z m-2301 141 c25 -18 29 -26 20 -37 -9 -12 -16 -10 -42 8 -37 27
-115 28 -152 4 -87 -57 -87 -205 0 -262 41 -27 116 -24 155 5 24 17 35 20 43
11 9 -9 5 -17 -16 -35 -33 -29 -82 -40 -143 -30 -79 12 -144 96 -144 189 0 35
33 106 60 131 53 48 162 56 219 16z m1217 4 c20 -13 23 -20 15 -28 -8 -8 -16
-9 -29 -1 -55 35 -120 20 -133 -29 -10 -38 21 -70 87 -91 65 -21 86 -44 88
-95 0 -29 -6 -47 -23 -65 -42 -45 -135 -47 -180 -4 -21 19 -22 22 -6 30 12 7
22 5 34 -7 31 -27 82 -30 114 -5 53 42 32 88 -55 120 -66 24 -98 59 -98 104 1
81 108 122 186 71z m134 -15 c0 -13 -7 -20 -20 -20 -13 0 -20 7 -20 20 0 13 7
20 20 20 13 0 20 -7 20 -20z m-967 -116 c26 -26 43 -76 32 -94 -3 -6 -45 -10
-96 -10 -100 0 -110 -9 -63 -57 21 -21 32 -24 61 -20 20 4 43 13 52 21 10 9
22 12 30 7 36 -23 -50 -66 -110 -56 -42 7 -84 48 -95 92 -9 36 12 99 43 122
39 31 112 29 146 -5z m253 12 c16 -12 20 -30 24 -115 5 -91 3 -101 -12 -101
-10 0 -18 4 -18 9 0 5 -14 3 -31 -6 -60 -30 -136 10 -127 68 5 33 50 61 107
67 40 3 51 8 51 22 0 10 -7 23 -15 30 -19 16 -82 15 -102 -2 -11 -9 -16 -9
-23 3 -21 33 105 55 146 25z m134 -3 c0 -15 1 -15 18 0 24 22 72 23 72 2 0 -9
-9 -15 -22 -15 -50 0 -68 -36 -68 -129 0 -56 -3 -71 -15 -71 -12 0 -15 19 -15
115 0 96 3 115 15 115 8 0 15 -7 15 -17z m580 -98 c0 -108 -1 -115 -20 -115
-19 0 -20 7 -20 115 0 108 1 115 20 115 19 0 20 -7 20 -115z m258 99 c20 -14
22 -14 22 0 0 9 7 16 15 16 13 0 15 -21 15 -132 0 -147 -13 -188 -66 -208 -71
-27 -196 15 -158 53 3 3 20 -3 37 -14 32 -19 81 -25 112 -13 21 8 45 56 45 89
0 25 -1 25 -30 10 -60 -31 -136 -10 -165 45 -28 54 -16 105 33 147 32 27 106
31 140 7z m152 0 c0 -15 2 -15 25 0 13 9 42 16 64 16 63 0 81 -31 81 -141 0
-72 -3 -89 -15 -89 -12 0 -15 16 -15 83 0 102 -10 120 -65 115 -34 -3 -43 -8
-57 -38 -12 -22 -18 -58 -18 -97 0 -49 -3 -63 -15 -63 -12 0 -15 19 -15 115 0
96 3 115 15 115 8 0 15 -7 15 -16z m409 -10 c18 -23 21 -41 21 -115 0 -72 -3
-89 -15 -89 -8 0 -15 7 -15 16 0 14 -2 14 -15 0 -9 -8 -32 -18 -51 -22 -72
-13 -121 61 -73 112 16 17 37 25 80 30 61 7 69 16 46 48 -15 21 -73 24 -105 7
-15 -8 -23 -8 -28 0 -12 20 28 39 82 39 45 0 56 -4 73 -26z m346 6 c17 -18 17
-20 1 -26 -10 -4 -22 -2 -29 5 -17 17 -74 14 -81 -5 -9 -24 8 -40 60 -54 59
-17 81 -48 64 -89 -6 -16 -25 -35 -40 -41 -52 -22 -145 15 -119 47 10 11 14
11 29 -2 26 -23 74 -29 89 -11 23 27 9 50 -40 66 -26 8 -54 21 -63 29 -22 18
-20 57 4 81 27 27 100 28 125 0z m-2665 -530 c0 -22 -16 -27 -22 -8 -2 6 -12
9 -21 5 -13 -5 -17 -19 -17 -57 0 -27 5 -50 10 -50 6 0 10 -4 10 -10 0 -5 -10
-10 -23 -10 -22 0 -23 3 -19 65 4 54 2 65 -11 65 -8 0 -17 -6 -20 -12 -2 -7
-8 -10 -12 -6 -4 4 -5 14 -2 23 5 11 22 15 67 15 53 0 60 -2 60 -20z m119 3
c32 -27 37 -73 11 -106 -26 -33 -65 -35 -97 -5 -31 29 -30 72 2 103 29 29 55
32 84 8z m141 -48 c12 -36 26 -65 31 -65 5 0 9 -4 9 -10 0 -5 -11 -10 -25 -10
-15 0 -25 5 -24 13 4 31 -2 38 -28 35 -22 -2 -28 -8 -26 -25 2 -18 -2 -23 -22
-23 -14 0 -25 5 -25 10 0 6 5 10 10 10 6 0 10 4 10 10 0 25 43 120 55 120 8 0
23 -28 35 -65z m127 50 c19 -13 22 -13 27 0 4 11 22 15 66 15 53 0 60 -2 60
-20 0 -22 -16 -27 -22 -8 -2 6 -12 9 -21 5 -13 -5 -17 -19 -17 -57 0 -27 5
-50 10 -50 6 0 10 -4 10 -10 0 -5 -10 -10 -23 -10 -22 0 -23 3 -19 65 4 55 2
65 -12 65 -9 0 -16 -4 -16 -9 0 -16 -34 -18 -52 -3 -18 15 -48 10 -48 -8 0 -6
15 -17 34 -25 28 -12 46 -32 46 -50 0 -12 -35 -35 -54 -35 -29 0 -63 35 -45
45 7 5 16 1 21 -9 5 -9 18 -16 28 -16 32 0 23 33 -13 50 -37 17 -47 48 -21 67
23 17 35 16 61 -2z m238 -50 l22 -59 23 62 c16 45 28 62 41 62 21 0 34 -16 19
-25 -13 -8 -13 -105 1 -105 5 0 7 -4 4 -10 -3 -5 -14 -10 -24 -10 -16 0 -18 7
-14 53 l3 52 -19 -40 c-11 -22 -20 -46 -20 -53 -2 -28 -26 -3 -48 49 l-24 54
4 -57 c3 -48 1 -58 -12 -58 -13 0 -16 13 -16 75 0 69 2 75 19 73 13 -2 26 -22
41 -63z m229 3 c12 -31 25 -60 29 -64 14 -14 7 -25 -15 -22 -17 2 -22 9 -20
26 3 18 -1 22 -26 22 -17 0 -32 -6 -36 -15 -3 -8 -1 -15 4 -15 6 0 10 -4 10
-10 0 -5 -11 -10 -25 -10 -25 0 -34 14 -16 24 5 3 12 18 16 33 13 52 35 95 47
91 6 -2 21 -29 32 -60z m130 46 c30 -30 16 -46 -15 -18 -10 9 -23 13 -28 9
-20 -12 -11 -30 22 -45 56 -26 35 -92 -25 -77 -14 4 -29 14 -32 23 -10 25 4
32 19 11 15 -20 46 -20 53 1 2 7 -11 19 -31 27 -42 17 -53 41 -31 66 21 23 47
24 68 3z m154 -6 c2 -11 -3 -18 -12 -18 -9 0 -16 5 -16 10 0 6 -7 10 -16 10
-14 0 -16 -10 -12 -65 3 -55 1 -65 -12 -65 -13 0 -15 10 -12 65 4 55 2 65 -12
65 -9 0 -16 -4 -16 -10 0 -5 -4 -10 -10 -10 -5 0 -10 9 -10 20 0 19 5 21 62
18 50 -2 63 -6 66 -20z m119 6 c3 -8 1 -20 -5 -26 -8 -8 -13 -7 -18 5 -10 28
-44 21 -44 -8 0 -19 6 -25 23 -26 l22 -2 -22 -4 c-31 -6 -33 -53 -3 -53 11 0
20 5 20 10 0 6 7 10 16 10 9 0 14 -7 12 -17 -2 -14 -15 -19 -53 -21 l-50 -3 2
73 c1 40 2 74 3 76 0 1 20 2 45 2 32 0 47 -5 52 -16z m103 -2 c19 -15 21 -22
12 -39 -12 -21 -5 -64 12 -75 15 -10 0 -22 -19 -15 -8 4 -15 15 -15 25 0 19
-18 42 -33 42 -5 0 -7 -16 -4 -35 5 -32 4 -35 -19 -35 -23 0 -31 10 -18 23 9
8 9 91 1 104 -17 28 50 32 83 5z m128 2 c12 -8 20 -20 16 -25 -4 -6 -13 -4
-25 7 -20 18 -49 13 -49 -9 0 -7 16 -19 35 -26 26 -9 35 -18 35 -35 0 -46 -52
-62 -85 -26 -23 25 -12 39 13 17 23 -21 52 -22 52 -1 0 8 -16 22 -35 30 -26
11 -35 20 -35 39 0 22 22 44 45 45 6 0 21 -7 33 -16z"/>
<path d="M297 2543 c-4 -3 -7 -138 -7 -300 l0 -293 60 0 60 0 0 -90 c0 -49 3
-90 8 -90 4 0 57 50 117 110 64 64 118 110 129 110 18 0 19 -1 1 -20 -18 -20
-17 -20 239 -20 l256 0 -2 298 -3 297 -426 3 c-234 1 -429 -1 -432 -5z"/>
<path d="M1883 2345 c-27 -12 -43 -32 -43 -56 0 -5 34 -9 75 -9 66 0 75 2 75
18 0 41 -59 67 -107 47z"/>
<path d="M2144 2250 c-42 -17 -41 -64 2 -74 53 -14 94 14 94 63 0 18 -6 21
-37 20 -21 0 -47 -4 -59 -9z"/>
<path d="M3102 2343 c-16 -6 -42 -56 -42 -82 0 -11 12 -33 26 -50 41 -49 112
-41 142 16 32 59 -8 124 -75 122 -21 0 -44 -3 -51 -6z"/>
<path d="M3662 2244 c-41 -29 -18 -74 38 -74 27 0 70 43 70 70 0 17 -6 20 -43
20 -23 0 -53 -7 -65 -16z"/>
<path d="M1507 1812 c-32 -35 -11 -92 32 -92 42 0 60 71 25 97 -24 18 -38 16
-57 -5z"/>
<path d="M1677 1806 c-11 -27 -8 -36 8 -36 16 0 17 5 6 34 -7 18 -8 18 -14 2z"/>
<path d="M2270 1811 c0 -5 -3 -16 -6 -25 -4 -11 0 -16 14 -16 15 0 19 5 15 20
-6 22 -23 38 -23 21z"/>
<path d="M2770 1811 c0 -15 6 -21 21 -21 25 0 22 33 -4 38 -12 2 -17 -3 -17
-17z"/>
</g>
</svg>
